<mxfile host="app.diagrams.net" modified="2023-05-10T14:46:54.334Z" agent="Mozilla/5.0 (Windows NT 10.0; Win64; x64) AppleWebKit/537.36 (KHTML, like Gecko) Chrome/111.0.0.0 Safari/537.36 OPR/97.0.0.0" etag="KWvS7E6w8k2GCUwy88xD" version="21.2.9" type="device">
  <diagram id="6a731a19-8d31-9384-78a2-239565b7b9f0" name="Page-1">
    <mxGraphModel dx="1393" dy="758" grid="1" gridSize="10" guides="1" tooltips="1" connect="1" arrows="1" fold="1" page="1" pageScale="1" pageWidth="1169" pageHeight="827" background="none" math="0" shadow="0">
      <root>
        <mxCell id="0" />
        <mxCell id="1" parent="0" />
        <mxCell id="1760" value="Plantilla" style="rounded=1;whiteSpace=wrap;html=1;shadow=0;labelBackgroundColor=none;strokeColor=none;strokeWidth=3;fillColor=#1699d3;fontFamily=Helvetica;fontSize=14;fontColor=#FFFFFF;align=center;spacing=5;fontStyle=1;arcSize=7;perimeterSpacing=2;" parent="1" vertex="1">
          <mxGeometry x="320" y="280" width="150" height="60" as="geometry" />
        </mxCell>
        <mxCell id="UL6byCofFnZ8OM12oRtb-1781" value="&lt;font color=&quot;#ffffff&quot; style=&quot;font-size: 20px;&quot;&gt;Vista&lt;/font&gt;" style="ellipse;whiteSpace=wrap;html=1;aspect=fixed;fillColor=#2F5B7C;" vertex="1" parent="1">
          <mxGeometry x="550" y="440" width="130" height="130" as="geometry" />
        </mxCell>
        <mxCell id="UL6byCofFnZ8OM12oRtb-1784" value="Usuario" style="shape=umlActor;verticalLabelPosition=bottom;verticalAlign=top;html=1;outlineConnect=0;" vertex="1" parent="1">
          <mxGeometry x="340" y="530" width="60" height="120" as="geometry" />
        </mxCell>
        <mxCell id="UL6byCofFnZ8OM12oRtb-1787" value="Modelo" style="shape=process;whiteSpace=wrap;html=1;backgroundOutline=1;fillColor=#FFCC99;" vertex="1" parent="1">
          <mxGeometry x="640" y="280" width="120" height="60" as="geometry" />
        </mxCell>
        <mxCell id="UL6byCofFnZ8OM12oRtb-1788" value="" style="shape=flexArrow;endArrow=classic;startArrow=none;html=1;rounded=0;entryX=0.031;entryY=0.692;entryDx=0;entryDy=0;startFill=0;fillColor=#000000;entryPerimeter=0;strokeColor=none;" edge="1" parent="1" source="UL6byCofFnZ8OM12oRtb-1784" target="UL6byCofFnZ8OM12oRtb-1781">
          <mxGeometry width="100" height="100" relative="1" as="geometry">
            <mxPoint x="420" y="610" as="sourcePoint" />
            <mxPoint x="520" y="510" as="targetPoint" />
          </mxGeometry>
        </mxCell>
        <mxCell id="UL6byCofFnZ8OM12oRtb-1789" value="" style="shape=flexArrow;endArrow=classic;startArrow=none;html=1;rounded=0;entryX=0.667;entryY=0.967;entryDx=0;entryDy=0;startFill=0;fillColor=#000000;entryPerimeter=0;strokeColor=none;exitX=0.738;exitY=0.069;exitDx=0;exitDy=0;exitPerimeter=0;" edge="1" parent="1" source="UL6byCofFnZ8OM12oRtb-1781" target="UL6byCofFnZ8OM12oRtb-1787">
          <mxGeometry width="100" height="100" relative="1" as="geometry">
            <mxPoint x="650" y="430" as="sourcePoint" />
            <mxPoint x="804" y="380" as="targetPoint" />
          </mxGeometry>
        </mxCell>
        <mxCell id="UL6byCofFnZ8OM12oRtb-1790" value="" style="shape=flexArrow;endArrow=classic;startArrow=none;html=1;rounded=0;entryX=0.396;entryY=0.938;entryDx=0;entryDy=0;startFill=0;fillColor=#000000;entryPerimeter=0;strokeColor=none;exitX=0.069;exitY=0.285;exitDx=0;exitDy=0;exitPerimeter=0;" edge="1" parent="1" source="UL6byCofFnZ8OM12oRtb-1781" target="1760">
          <mxGeometry width="100" height="100" relative="1" as="geometry">
            <mxPoint x="420" y="600" as="sourcePoint" />
            <mxPoint x="574" y="550" as="targetPoint" />
          </mxGeometry>
        </mxCell>
        <mxCell id="UL6byCofFnZ8OM12oRtb-1793" value="" style="shape=flexArrow;endArrow=none;startArrow=block;html=1;rounded=0;dashed=1;entryX=0.909;entryY=0.938;entryDx=0;entryDy=0;entryPerimeter=0;startFill=0;endFill=0;" edge="1" parent="1" source="UL6byCofFnZ8OM12oRtb-1781" target="1760">
          <mxGeometry width="100" height="100" relative="1" as="geometry">
            <mxPoint x="530" y="520" as="sourcePoint" />
            <mxPoint x="630" y="420" as="targetPoint" />
          </mxGeometry>
        </mxCell>
        <mxCell id="UL6byCofFnZ8OM12oRtb-1794" value="" style="shape=flexArrow;endArrow=none;startArrow=block;html=1;rounded=0;dashed=1;startFill=0;endFill=0;exitX=0.5;exitY=0;exitDx=0;exitDy=0;exitPerimeter=0;" edge="1" parent="1" source="UL6byCofFnZ8OM12oRtb-1784" target="1760">
          <mxGeometry width="100" height="100" relative="1" as="geometry">
            <mxPoint x="580" y="468" as="sourcePoint" />
            <mxPoint x="468" y="348" as="targetPoint" />
          </mxGeometry>
        </mxCell>
        <mxCell id="UL6byCofFnZ8OM12oRtb-1795" value="" style="shape=flexArrow;endArrow=none;startArrow=block;html=1;rounded=0;dashed=1;startFill=0;endFill=0;exitX=0.569;exitY=0.023;exitDx=0;exitDy=0;exitPerimeter=0;" edge="1" parent="1" source="UL6byCofFnZ8OM12oRtb-1781" target="UL6byCofFnZ8OM12oRtb-1787">
          <mxGeometry width="100" height="100" relative="1" as="geometry">
            <mxPoint x="590" y="478" as="sourcePoint" />
            <mxPoint x="478" y="358" as="targetPoint" />
          </mxGeometry>
        </mxCell>
      </root>
    </mxGraphModel>
  </diagram>
</mxfile>
